<svg viewBox="0 0 68 68" fill="#D60000" xmlns="http://www.w3.org/2000/svg">
  <path
    d="M25.2,36.67a5.67,5.67,0,1,0,5.68,5.67A5.68,5.68,0,0,0,25.2,36.67Zm0,8.5A2.83,2.83,0,1,1,28,
      42.34,2.83,2.83,0,0,1,25.2,45.17ZM68,32.49v6a2.73,2.73,0,0,1-2.73,2.73H62.33a7.51,7.51,0,0,0-14.85,
      0H32.62a7.5,7.5,0,0,0-14.84,0H14.11a2.73,2.73,0,0,1-2.73-2.73v-6ZM54.9,36.67a5.67,5.67,0,
      1,0,5.68,5.67A5.69,5.69,0,0,0,54.9,36.67Zm0,8.5a2.83,2.83,0,1,1,2.83-2.83A2.83,2.83,0,0,1,54.9,
      45.17Zm12-18.76L56.17,15.8a3.69,3.69,0,0,0-2.57-1.05H48.17v-2A2.73,2.73,0,0,0,45.43,10H14.1a2.72,2.72,0,0,
      0-2.73,2.72v.44L.26,14.43,19.93,17,0,19l19.87,2.81L0,23.49l11.37,2.13V31H68V29A3.66,3.66,0,0,0,66.92,
      26.41Zm-4.69.35H51.82a.43.43,0,0,1-.43-.43v-8a.44.44,0,0,1,.43-.44h2a.43.43,0,0,1,.3.13l8.42,8A.43.43,0,0,
      1,62.23,26.76Z"
  />
</svg>
