<svg viewBox="0 0 68 68" fill="#D60000" xmlns="http://www.w3.org/2000/svg">
  <path
    d="M34.71,5.66a29,29,0,1,0,29,29A29.13,29.13,0,0,0,34.71,5.66ZM53.59,24.9c1.45,0,2.54,1.09,4,
      1.09-1.09,1.45-5.81,1.45-7.26-.36A8.52,8.52,0,0,1,53.59,24.9ZM9.3,34.7A22.55,22.55,0,0,1,9.66,30c.36,
      0,.73.37,1.09.37a1.26,1.26,0,0,1,.36.72,2,2,0,0,0,1.82,1.82c2.9.36,4,2.9,6.53,3.63.73.36.36,1.09,0,
      1.81-2.18,2.91-.36,5.09,1.45,6.9,1.82,1.45,1.82,2.9,2.18,5.08a20.69,20.69,0,0,0,1.45,8C15.47,53.94,9.3,
      45.23,9.3,34.7ZM34.71,60.11A26.06,26.06,0,0,1,27.08,59a2.34,2.34,0,0,1,0-2.18,58.72,58.72,0,0,1,4.72-8,
      3.67,3.67,0,0,0,1.46-2.54A6.72,6.72,0,0,1,34,
      43.78c1.09-1.82.73-2.91-.72-3.27-2.91-.72-4.36-3.27-6.54-4.36s-4.35-1.81-6.17-.72c-.73.36-1.81.72-1.81-.36,
      0-1.46-1.82-2.55-1.46-4a1.33,1.33,0,0,0-1.09.37c-.36.36-.72.72-1.45.36-.72-.73-.36-1.45-.36-2.18a2.78,2.78,
      0,0,1,1.45-1.45c1.45-.36,2.91-.36,3.63,1.45a12.37,12.37,0,0,1,5.45-6.53,25.7,25.7,0,0,1,3.26-2.54c.37,
      0,.73.72,1.46,1.08.72,0,1.08,0,1.08-.72.37-1.82-.72-4-2.17-4.36a.35.35,0,0,1,.36-.36C30,15.83,31.44,
      15.1,31.08,14c0-1.45-1.45-2.18-2.91-2.18A4.5,4.5,0,0,0,26,12.2a12.15,12.15,0,0,1-5.45,1.45A24.17,24.17,
      0,0,1,34.71,9.29h2.9a21.74,21.74,0,0,0-5.81,1.82c2.18.36,2.55,1.45,1.82,3.26a1.33,1.33,0,0,0,.73,
      1.82c.72.36,1.45.36,1.81-.36.73-1.09,2.18-1.46,3.27-1.82a6.14,6.14,0,0,0,3.63-2.54c0-.36.36-.36.72-.73a29.71,
      29.71,0,0,1,6.54,3.63c-.36,0-.36.37-.73.37-.72.72-1.81,1.09-.72,2.54.36.72,0,1.09-.37,
      1.45-.72.36-1.09,0-1.45-.36s-.36-1.09-1.45-1.09c-.36.72-1.45,1.09-1.45,2.18C46,19.46,45.6,20.91,46,
      22c-2.18.36-2.9,1.45-1.81,3.26.36.73-.37,1.09-.73,1.46-1.45,2.17-2.9,3.63-2.9,6.17s1.81,5.08,4.72,
      4.72c3.26-.37,3.26-.37,4.35,2.54,0,.36.37.72.37,1.09a2.42,2.42,0,0,1,.36,2.18c-1.09,2.9.36,5.08,
      1.45,7.26a5.19,5.19,0,0,0,1.09,1.45A24.16,24.16,0,0,1,34.71,60.11Z"
  />
</svg>
