<svg viewBox="0 0 68 68" fill="#428bca" xmlns="http://www.w3.org/2000/svg">
  <path
    d="M31.71,52.74h-7A1.29,1.29,0,0,0,23.41,54v7a1.29,1.29,0,0,0,1.29,1.29h7A1.3,1.3,
      0,0,0,33,61V54A1.29,1.29,0,0,0,31.71,52.74Zm13,0h-7A1.29,1.29,0,0,0,36.41,54v7a1.29,1.29,
      0,0,0,1.29,1.29h7A1.3,1.3,0,0,0,46,61V54A1.29,1.29,0,0,0,44.71,52.74Zm-5.2-4.34v-7a1.3,1.3,0,
      0,0-1.3-1.29h-7a1.29,1.29,0,0,0-1.29,1.29v7a1.3,1.3,0,0,0,1.29,1.3h7A1.3,1.3,0,0,0,39.51,48.4ZM59.34,
      28.22l-23.7-15.5a1.7,1.7,0,0,0-1.86,0l-23.7,15.5a1.71,1.71,0,0,0-.77,1.43v31a1.7,1.7,0,0,0,1.7,
      1.7H18.3A1.7,1.7,0,0,0,20,60.63V33.17h29.4V60.63a1.7,1.7,0,0,0,1.7,1.7h7.3a1.7,1.7,0,0,0,
      1.7-1.7v-31A1.74,1.74,0,0,0,59.34,28.22Zm4.38-4.38A1.74,1.74,0,0,0,63,22.76L35.65,4.53a1.72,1.72,0,0,
      0-1.88,0L6.43,22.76A1.7,1.7,0,0,0,6,25.12l1,1.47a5,5,0,0,1,1.29-1.22L31.92,9.88a5.11,5.11,0,0,1,5.59,
      0l23.7,15.49a5,5,0,0,1,1.29,1.22l1-1.47A1.74,1.74,0,0,0,63.72,23.84Z"
  />
</svg>
